<svg width="396" height="396" viewBox="0 0 396 396" fill="none" xmlns="http://www.w3.org/2000/svg">
<path d="M238.043 66.4181C246.815 62.8656 256.603 61.4156 266.427 62.213C280.274 63.3005 293.325 69.5717 305.396 80.9542C306.52 82.005 307.607 82.8753 307.825 82.8761C308.006 82.8761 309.203 82.6583 310.472 82.3683C311.74 82.0783 314.894 81.6434 317.468 81.4259C321.926 81.0634 325.842 80.6643 337.95 79.4318C340.85 79.1418 345.272 78.743 347.773 78.5255C350.274 78.3443 353.501 77.9824 354.915 77.7287C358.794 77.0761 359.519 78.2717 356.365 80.048C341.611 88.4944 334.506 94.5122 328.416 103.72C321.347 114.45 315.656 131.053 313.444 147.583C313.19 149.468 311.958 156.973 310.762 163.897C307.753 181.224 303.222 195.579 295.682 211.566C289.664 224.362 284.009 233.752 275.562 244.917C258.017 268.154 234.816 286.533 202.626 302.628C199.472 304.223 195.775 305.963 194.47 306.507C193.128 307.087 189.938 308.464 187.328 309.588C164.961 319.412 136.721 327.061 109.751 330.65C102.181 331.652 97.7014 332.251 95.4872 332.587C95.618 332.627 94.9263 332.732 93.9471 332.852C93.9341 332.855 93.9217 332.858 93.91 332.86C93.6467 332.909 93.4542 332.943 93.3114 332.926C91.6717 333.114 89.6184 333.312 89.0516 333.332C88.9694 333.334 88.8846 333.339 88.7977 333.342C87.9358 333.571 85.5982 333.731 85.1366 333.731C84.6652 333.731 83.7955 333.84 83.2157 333.948C82.4544 334.093 82.056 334.021 81.911 333.658C81.621 332.897 82.0195 332.426 83.5057 331.81C84.131 331.56 85.7517 330.967 86.7802 330.706C87.5991 330.207 89.5611 329.297 91.9159 328.366C94.9247 327.17 101.088 324.704 105.583 322.928C110.078 321.152 116.603 318.506 120.083 317.056C123.563 315.606 127.985 313.794 129.87 313.068C141.47 308.428 163.692 297.806 173.371 292.224C182.651 286.895 191.823 280.515 200.559 273.265C205.816 268.915 216.546 258.184 220.316 253.472C221.911 251.478 223.579 249.484 224.014 249.013C224.485 248.542 224.847 248.034 224.884 247.889C224.921 247.742 225.863 246.329 227.022 244.735C228.98 241.98 230.249 239.986 233.258 234.947C236.955 228.712 242.067 217.148 243.988 210.659C246.743 201.343 247.432 196.631 247.432 187.641C247.395 177.708 246.091 169.515 243.082 160.452C240.834 153.637 235.65 143.813 231.88 139.209C231.25 138.445 230.457 137.421 229.921 136.549C229.778 136.453 229.521 136.193 229.405 136.006C228.857 135.669 227.789 134.756 226.624 133.591C219.591 126.776 208.643 119.888 200.414 117.133C198.891 116.625 195.956 115.864 193.926 115.465C187.836 114.269 187.799 114.233 189.901 110.209C195.158 100.24 201.973 91.4669 210.746 83.383C214.733 79.686 222.152 74.3271 222.879 73.963C223.241 73.6005 222.988 73.8173 223.604 73.5997C223.966 73.4548 223.967 73.2375 224.329 73.2374C224.536 72.9882 224.521 73.0158 226.044 72.0734C228.291 70.7321 233.62 68.1944 238.043 66.4181ZM86.1884 332.498C86.1675 332.507 86.161 332.517 86.1669 332.527C86.2541 332.482 86.2838 332.466 86.1884 332.498ZM41.2059 89.1095C41.8947 85.4122 42.729 84.5065 43.744 86.464C44.026 87.0061 45.4389 89.2942 46.4393 91.172C47.0791 92.0568 47.9871 93.3714 48.9589 94.839C55.629 105.025 63.5321 113.001 71.6522 117.75C78.1773 121.593 86.8052 124.71 106.851 130.546C110.041 131.489 115.588 133.157 119.177 134.244C122.765 135.332 128.312 137.035 131.502 137.978C154.448 144.938 172.755 153.275 182.507 161.214C191.787 168.79 198.167 177.672 202.3 188.729C204.475 194.529 205.634 199.097 206.903 206.673C207.882 212.509 208.535 212.944 209.731 208.667C210.384 206.275 210.492 204.897 210.492 197.429C210.528 190.36 210.42 188.402 209.84 186.01C207.81 177.201 206.106 172.706 202.408 166.652C195.629 155.415 186.204 147.657 168.477 138.776C155.79 132.432 136.976 125.725 126.934 123.985C123.165 123.332 122.983 123.296 122.983 122.608C122.983 121.52 124.144 121.338 132.771 120.94C148.323 120.251 159.162 120.541 166.122 121.846C167.608 122.1 170.798 122.68 173.19 123.152C175.582 123.586 177.902 124.166 178.374 124.456C178.809 124.71 179.016 124.713 179.643 124.855C180.085 124.777 183.085 125.534 184.766 126.065C186.478 126.452 193.777 129.077 197.297 130.618C201.284 132.358 207.012 135.513 209.441 137.361C220.534 145.808 226.66 154.291 230.829 166.797C234.962 179.267 235.106 192.318 231.191 205.223C222.781 232.918 206.867 253.98 177.722 275.948C166.158 284.685 151.657 293.964 138.933 300.743C130.126 305.419 90.3325 325.026 89.5966 325.031C89.2341 325.031 88.9071 324.886 88.9071 324.705C88.9073 324.234 90.7932 322.639 95.2518 319.376C122.041 299.728 134.548 288.092 144.19 273.773C151.658 262.716 154.485 253.617 153.433 244.265C152.745 237.993 150.86 233.897 146.8 229.765C142.341 225.233 138.208 223.022 121.787 216.497C107.142 210.661 96.7379 206.166 91.4452 203.302C78.8662 196.559 71.0717 190.831 62.8065 182.349C54.6502 173.939 48.1254 164.15 44.3554 154.616C44.1129 153.999 43.9436 153.57 43.8456 153.221C43.1142 151.605 42.2429 148.681 41.4188 145.735C38.7725 136.419 37.5399 124.456 38.1561 113.726C38.4134 109.096 39.4384 100.546 40.162 96.3351C40.3791 93.8103 41.0994 89.7754 41.2059 89.1095ZM283.973 98.6447C281.797 97.8834 280.673 97.9559 278.426 98.9347C271.647 101.944 271.357 111.441 277.955 114.885C278.571 115.247 279.949 115.465 281.254 115.501C283.066 115.501 283.718 115.32 285.059 114.45C287.416 112.928 288.25 111.877 289.012 109.303C289.918 106.33 289.917 105.569 288.866 103.358C287.779 101.074 286.039 99.3697 283.973 98.6447Z" fill="#003288"/>
<path d="M354.939 77.7153C358.814 77.0639 359.538 78.258 356.388 80.0315C341.647 88.466 334.548 94.4758 328.463 103.67C324.285 110.008 320.589 118.397 317.81 127.608C321.13 106.724 316.773 94.7937 307.746 82.8554C307.826 82.8554 307.797 82.8554 307.89 82.8554C308.072 82.8551 309.267 82.6379 310.534 82.3485C311.802 82.0589 314.953 81.6246 317.524 81.4074C321.979 81.0454 325.891 80.6472 337.988 79.4164C340.886 79.1268 345.304 78.7286 347.803 78.5114C350.303 78.3304 353.527 77.9687 354.939 77.7153Z" fill="#FF0000"/>
</svg>
